HIERARCHY
ROOT SpineBase
{
  OFFSET 0.000000 0.000000 0.000000
  CHANNELS 6 Xposition Yposition Zposition Zrotation Xrotation Yrotation
  JOINT SpineMid
  {
    OFFSET 0.000000 27.999290 0.000000
    CHANNELS 3 Zrotation Xrotation Yrotation
    JOINT SpineShoulder
    {
      OFFSET 0.035352 20.862931 -0.696741
      CHANNELS 3 Zrotation Xrotation Yrotation
      JOINT Neck
      {
        OFFSET 0.037990 6.931452 -0.524240
        CHANNELS 3 Zrotation Xrotation Yrotation
        JOINT Head
        {
          OFFSET -4.084850 13.077617 -1.321439
          CHANNELS 3 Zrotation Xrotation Yrotation
          End Site
          {
            OFFSET 0 0 0
          }
        }
      }
      JOINT ShoulderLeft
      {
        OFFSET -16.472878 -4.031919 5.302843
        CHANNELS 3 Zrotation Xrotation Yrotation
        JOINT ElbowLeft
        {
          OFFSET -2.198088 -25.963125 2.498747
          CHANNELS 3 Zrotation Xrotation Yrotation
          JOINT WristLeft
          {
            OFFSET 2.326172 -21.063172 -6.742796
            CHANNELS 3 Zrotation Xrotation Yrotation
            JOINT HandLeft
            {
              OFFSET 0.368136 -3.901413 -0.019041
              CHANNELS 3 Zrotation Xrotation Yrotation
              JOINT HandTipLeft
              {
                OFFSET 0.759767 -6.008992 -0.439861
                CHANNELS 3 Zrotation Xrotation Yrotation
                End Site
                {
                  OFFSET 0 0 0
                }
              }
              JOINT ThumbLeft
              {
                OFFSET 4.008183 1.209433 -3.617204
                CHANNELS 3 Zrotation Xrotation Yrotation
                End Site
                {
                  OFFSET 0 0 0
                }
              }
            }
          }
        }
      }
      JOINT ShoulderRight
      {
        OFFSET 14.370907 -2.160898 -6.520072
        CHANNELS 3 Zrotation Xrotation Yrotation
        JOINT ElbowRight
        {
          OFFSET 7.729995 -24.837769 1.292754
          CHANNELS 3 Zrotation Xrotation Yrotation
          JOINT WristRight
          {
            OFFSET 0.296829 -22.110932 -4.093234
            CHANNELS 3 Zrotation Xrotation Yrotation
            JOINT HandRight
            {
              OFFSET -1.221694 -6.561554 -1.480166
              CHANNELS 3 Zrotation Xrotation Yrotation
              JOINT HandTipRight
              {
                OFFSET 0.087508 -7.976303 -1.556541
                CHANNELS 3 Zrotation Xrotation Yrotation
                End Site
                {
                  OFFSET 0 0 0
                }
              }
              JOINT ThumbRight
              {
                OFFSET -3.575881 0.587499 -2.204534
                CHANNELS 3 Zrotation Xrotation Yrotation
                End Site
                {
                  OFFSET 0 0 0
                }
              }
            }
          }
        }
      }
    }
  }
  JOINT HipLeft
  {
    OFFSET -6.215518 0.149441 -1.288687
    CHANNELS 3 Zrotation Xrotation Yrotation
    JOINT KneeLeft
    {
      OFFSET 4.606057 -34.424304 5.362390
      CHANNELS 3 Zrotation Xrotation Yrotation
      JOINT AnkleLeft
      {
        OFFSET 4.516287 -30.013488 2.538876
        CHANNELS 3 Zrotation Xrotation Yrotation
        JOINT FootLeft
        {
          OFFSET 6.892157 -4.562675 -7.503573
          CHANNELS 3 Zrotation Xrotation Yrotation
          End Site
          {
            OFFSET 0 0 0
          }
        }
      }
    }
  }
  JOINT HipRight
  {
    OFFSET 6.868026 1.746294 -4.957672
    CHANNELS 3 Zrotation Xrotation Yrotation
    JOINT KneeRight
    {
      OFFSET 6.482811 -34.227085 1.661130
      CHANNELS 3 Zrotation Xrotation Yrotation
      JOINT AnkleRight
      {
        OFFSET 3.306966 -32.263117 4.798034
        CHANNELS 3 Zrotation Xrotation Yrotation
        JOINT FootRight
        {
          OFFSET -3.793516 -2.932015 -11.734101
          CHANNELS 3 Zrotation Xrotation Yrotation
          End Site
          {
            OFFSET 0 0 0
          }
        }
      }
    }
  }
}
MOTION
Frames: 14
Frame Time: 0.033333
-35.472606 72.051319 337.960416 -0.000000 0.000000 15.664955 0.000000 0.000000 -15.664955 -0.000000 0.000000 0.000000 -0.000000 0.000000 0.000000 0.000000 0.000000 0.000000 -0.000000 0.000000 0.000000 -0.000000 0.000000 0.000000 -0.000000 0.000000 0.000000 -0.000000 0.000000 0.000000 0.000000 0.000000 0.000000 0.000000 0.000000 0.000000 -0.000000 0.000000 0.000000 -0.000000 0.000000 0.000000 -0.000000 0.000000 0.000000 -0.000000 0.000000 0.000000 0.000000 0.000000 0.000000 0.000000 0.000000 0.000000 0.000000 0.000000 -15.664955 -0.000000 0.000000 0.000000 -0.000000 0.000000 0.000000 0.000000 0.000000 0.000000 0.000000 0.000000 -15.664955 -0.000000 0.000000 0.000000 -0.000000 0.000000 0.000000 0.000000 0.000000 0.000000
-35.478563 72.051275 337.845464 -0.027675 0.087358 16.222153 0.002169 -0.091611 -16.222130 -0.000000 0.000000 0.000000 -0.000000 0.000000 0.000000 0.000000 0.000000 0.000000 -0.000000 0.000000 0.000000 -0.000000 0.000000 0.000000 1.943906 2.375421 0.174085 -4.308814 -3.459411 -0.342221 0.000000 0.000000 0.000000 0.000000 0.000000 0.000000 -1.102918 0.069553 -0.035197 1.361490 -0.964177 -0.020997 -1.471825 -1.495242 0.776629 3.952668 2.653995 -1.388663 0.000000 0.000000 0.000000 0.000000 0.000000 0.000000 0.002169 -0.091611 -16.222130 -0.000000 0.000000 0.000000 -0.170149 -3.017194 -4.485488 0.000000 0.000000 0.000000 1.293030 0.119174 -16.058781 -2.377902 -1.467839 -0.461413 3.541169 -8.074699 4.139881 0.000000 0.000000 0.000000
-35.460584 72.046926 337.745755 -0.042375 0.163774 16.640701 -0.006299 -0.169049 -16.640650 -0.000000 0.000000 0.000000 0.794953 0.567296 0.253169 0.000000 0.000000 0.000000 -0.000000 0.000000 0.000000 -0.933984 -0.069485 0.291074 4.869218 4.771080 -0.032136 -7.744481 -6.472620 -0.913593 0.000000 0.000000 0.000000 0.000000 0.000000 0.000000 -1.856163 0.116298 -0.058840 2.323485 -1.522176 -0.036081 -2.567879 -2.721320 1.336795 6.875283 4.538040 -2.579298 0.000000 0.000000 0.000000 0.000000 0.000000 0.000000 -0.006299 -0.169049 -16.640650 -0.000000 0.000000 0.000000 -0.776387 -5.296930 -7.394915 0.000000 0.000000 0.000000 2.237433 0.174256 -16.358002 -4.157215 -2.541404 -0.838327 7.751724 -16.675596 8.747023 0.000000 0.000000 0.000000
-35.418669 72.038272 337.661288 -0.044130 0.229297 16.920899 -0.024518 -0.232214 -16.920861 -0.000000 0.000000 0.000000 0.979173 0.763641 0.330288 0.000000 0.000000 0.000000 0.905534 -0.046066 0.091474 -2.149865 -0.043620 0.297923 6.988544 6.831422 -0.124988 -10.252054 -8.865063 -1.520349 0.000000 0.000000 0.000000 0.000000 0.000000 0.000000 -2.271563 0.140572 -0.072160 2.896122 -1.669599 -0.048559 -3.286763 -3.628869 1.668413 8.772627 5.687433 -3.398135 0.000000 0.000000 0.000000 0.000000 0.000000 0.000000 -0.024518 -0.232214 -16.920861 -0.000000 0.000000 0.000000 -1.683108 -6.847070 -8.724811 0.000000 0.000000 0.000000 2.826411 0.176639 -16.562929 -5.337435 -3.236863 -1.102016 12.260005 -24.443746 13.357359 0.000000 0.000000 0.000000
-35.352819 72.025312 337.592064 -0.032961 0.283972 17.063433 -0.051816 -0.281144 -17.063478 -0.000000 0.000000 0.000000 1.022592 0.901764 0.376209 0.000000 0.000000 0.000000 1.072613 -0.028354 0.105981 -2.522943 -0.075509 0.347043 8.607286 8.333400 -0.234486 -11.669953 -10.453629 -1.971919 0.000000 0.000000 0.000000 0.000000 0.000000 0.000000 -2.356695 0.142634 -0.075844 3.085944 -1.405108 -0.060441 -3.629052 -4.188476 1.768011 9.637171 6.138382 -3.737638 0.000000 0.000000 0.000000 0.000000 0.000000 0.000000 -0.051816 -0.281144 -17.063478 -0.000000 0.000000 0.000000 -2.825543 -7.702724 -8.429813 0.000000 0.000000 0.000000 3.056875 0.133958 -16.674766 -5.918173 -3.565947 -1.234170 16.250312 -30.301995 17.142875 0.000000 0.000000 0.000000
-35.263032 72.008046 337.538082 -0.008878 0.327832 17.069317 -0.087742 -0.315997 -17.069533 -0.000000 0.000000 0.000000 0.925575 0.981731 0.391603 0.000000 0.000000 0.000000 1.173168 0.005774 0.112462 -2.725300 -0.115809 0.370788 9.565965 9.117947 -0.314563 -11.842022 -11.122326 -2.131216 0.000000 0.000000 0.000000 0.000000 0.000000 0.000000 -2.114723 0.122620 -0.070061 2.895771 -0.730278 -0.072421 -3.592965 -4.386758 1.638821 9.453489 5.911821 -3.551947 0.000000 0.000000 0.000000 0.000000 0.000000 0.000000 -0.087742 -0.315997 -17.069533 -0.000000 0.000000 0.000000 -4.204070 -7.891893 -6.386206 0.000000 0.000000 0.000000 2.928671 0.049921 -16.695289 -5.899182 -3.534435 -1.226156 18.776088 -33.834757 19.194164 0.000000 0.000000 0.000000
-35.156447 71.987616 337.460049 0.023837 0.392612 17.233950 -0.139090 -0.367922 -17.234479 -0.000000 0.000000 0.000000 0.875706 1.246166 0.467620 0.000000 0.000000 0.000000 1.234899 0.148517 0.104788 -2.762860 -0.104756 0.382716 10.016170 8.082452 -0.356805 -9.620071 -9.017529 -1.543193 0.000000 0.000000 0.000000 0.000000 0.000000 0.000000 -2.391502 -0.036332 -0.137447 3.338168 -0.765748 -0.044216 -2.964881 -2.613023 1.258043 7.725066 5.936257 -2.664891 0.000000 0.000000 0.000000 0.000000 0.000000 0.000000 -0.139090 -0.367922 -17.234479 -0.000000 0.000000 0.000000 -7.538823 -9.470834 -3.333466 0.000000 0.000000 0.000000 2.783943 -0.152385 -16.887133 -5.904365 -3.348148 -1.187134 19.928828 -35.722119 18.409731 0.000000 0.000000 0.000000
-35.010653 71.954747 337.439944 0.103847 0.439012 17.052322 -0.228024 -0.389257 -17.053495 -0.000000 0.000000 0.000000 0.878393 1.558262 0.562995 0.000000 0.000000 0.000000 1.323830 0.086935 0.119175 -2.836291 0.519724 0.435364 9.592980 4.619602 -0.364926 -7.321479 -7.113275 -1.042487 0.000000 0.000000 0.000000 0.000000 0.000000 0.000000 -2.516956 0.016878 -0.126264 3.256278 -0.422433 -0.012633 -2.294053 -3.709153 1.226041 7.132839 5.557133 -2.685281 0.000000 0.000000 0.000000 0.000000 0.000000 0.000000 -0.228024 -0.389257 -17.053495 -0.000000 0.000000 0.000000 -8.802288 -8.095668 2.125160 0.000000 0.000000 0.000000 1.084354 -0.642908 -16.950423 -3.282404 -1.597126 -0.562225 22.598072 -40.602614 23.691254 0.000000 0.000000 0.000000
-34.830393 71.913805 337.453653 0.161851 0.437393 16.558718 -0.279800 -0.373124 -16.560247 -0.000000 0.000000 0.000000 0.433345 1.281353 0.439170 0.000000 0.000000 0.000000 1.192792 0.175807 0.098188 -2.471948 0.218776 0.351466 8.266627 5.551734 -0.231236 -4.253980 -7.854579 -1.004179 0.000000 0.000000 0.000000 0.000000 0.000000 0.000000 -0.000000 0.000000 0.000000 0.493821 2.378806 -0.069461 -1.754429 -3.285874 0.439841 4.125371 1.196970 -1.068233 0.000000 0.000000 0.000000 0.000000 0.000000 0.000000 -0.279800 -0.373124 -16.560247 -0.000000 0.000000 0.000000 -10.957835 -5.499599 11.855337 0.000000 0.000000 0.000000 -0.279800 -0.373124 -16.560247 -1.352022 -0.965188 -0.311385 16.139289 -34.575464 15.598805 0.000000 0.000000 0.000000
-34.630854 71.876879 337.499311 0.234936 0.403063 15.651468 -0.334970 -0.324731 -15.653244 -0.000000 0.000000 0.000000 -0.842168 0.327213 0.019563 0.000000 0.000000 0.000000 1.033581 0.156671 0.084875 -2.011056 -0.378627 0.196087 7.058402 8.213409 -0.011421 -2.208293 -8.358734 -0.925013 0.000000 0.000000 0.000000 0.000000 0.000000 0.000000 3.172151 -0.063721 0.145818 -2.907517 7.941746 -0.100630 -0.917628 -4.386577 -0.642363 -1.166197 1.310890 0.885474 0.000000 0.000000 0.000000 0.000000 0.000000 0.000000 -0.334970 -0.324731 -15.653244 -0.000000 0.000000 0.000000 -13.081700 -1.940709 22.791454 0.000000 0.000000 0.000000 -0.334970 -0.324731 -15.653244 -0.961495 -0.475437 -0.195762 8.472510 -21.617967 4.106480 0.000000 0.000000 0.000000
-34.438849 71.851790 337.578317 0.312334 0.343984 14.336842 -0.387788 -0.255925 -14.338646 -0.000000 0.000000 0.000000 -2.913463 -1.151149 -0.688069 0.000000 0.000000 0.000000 -0.000000 0.000000 0.000000 -0.489998 -1.380953 -0.001569 5.868761 11.740658 0.324709 0.128925 -10.560427 -0.855876 0.000000 0.000000 0.000000 0.000000 0.000000 0.000000 8.440027 0.520101 0.551044 -7.826290 15.733523 -0.569364 -0.238125 -6.267998 -2.015533 -6.650753 -0.245643 2.623600 0.000000 0.000000 0.000000 0.000000 0.000000 0.000000 -0.387788 -0.255925 -14.338646 -0.540495 -0.700628 -0.154484 -14.173046 2.708990 32.615212 0.000000 0.000000 0.000000 -1.285464 -0.381146 -14.449565 0.838047 0.345200 0.103404 4.746824 -13.221276 -2.642020 0.000000 0.000000 0.000000
-34.259251 72.039390 337.562788 0.442665 0.465617 13.240207 -0.537550 -0.351840 -13.243656 -0.000000 0.000000 0.000000 -6.037074 -3.281819 -1.833804 0.000000 0.000000 0.000000 -0.000000 0.000000 0.000000 0.155613 -2.750286 -0.352529 4.946853 15.313300 0.711728 3.379981 -12.431242 -0.462410 0.000000 0.000000 0.000000 0.000000 0.000000 0.000000 16.631892 0.965671 0.986696 -15.971994 25.486792 -1.041882 -0.159557 -8.997217 -3.461341 -9.088061 0.182681 3.706174 0.000000 0.000000 0.000000 0.000000 0.000000 0.000000 -0.537550 -0.351840 -13.243656 -0.555840 -0.996622 -0.201823 -14.889914 8.548445 40.701502 0.000000 0.000000 0.000000 -1.935920 -0.322432 -13.373811 1.367260 0.294706 0.118410 3.315936 -3.611560 -10.130950 0.000000 0.000000 0.000000
-34.073291 71.983535 337.634307 0.555088 0.425377 10.648155 -0.624138 -0.315464 -10.651934 -0.000000 0.000000 0.000000 -10.698894 -5.908035 -3.569639 0.000000 0.000000 0.000000 -1.655436 0.254233 -0.177006 2.778791 -4.633301 -0.616435 2.809663 18.907643 1.433606 4.376687 -17.095573 -0.459124 0.000000 0.000000 0.000000 0.000000 0.000000 0.000000 27.216659 1.511150 1.440677 -24.184682 37.026879 -2.727204 -2.607400 -12.494905 -5.499461 -10.331305 0.104931 4.519013 0.000000 0.000000 0.000000 0.000000 0.000000 0.000000 -1.086088 0.509579 -10.648556 0.062451 -2.032946 -0.254552 -15.521010 9.535164 42.870269 0.000000 0.000000 0.000000 -2.096800 0.315258 -10.662024 0.607161 -0.084300 -0.104219 4.039039 -1.739347 -11.175940 0.000000 0.000000 0.000000
-33.907857 71.739204 337.786281 0.627354 0.215277 7.103542 -0.649162 -0.136033 -7.105491 0.793847 0.207370 0.057478 -17.270630 -8.460755 -5.793152 0.000000 0.000000 0.000000 -3.929655 -0.672065 -0.345727 5.009154 -5.041615 -0.897615 2.176001 21.582739 1.829286 4.782295 -21.533463 -0.442710 0.000000 0.000000 0.000000 0.000000 0.000000 0.000000 38.026904 -1.570737 2.025838 -35.714964 52.361808 -1.831817 4.997477 -12.730323 -5.678058 -18.131428 -4.599786 4.253326 0.000000 0.000000 0.000000 0.000000 0.000000 0.000000 -1.387949 0.682028 -7.135604 0.299271 -2.358819 -0.267313 -13.131593 13.352800 40.960212 0.000000 0.000000 0.000000 -1.910508 1.423346 -6.897261 -0.062674 -1.111224 -0.404585 4.770584 -0.785059 -12.828997 0.000000 0.000000 0.000000
